<?xml version="1.0" encoding="UTF-8"?>
<!-- Generator: Adobe Illustrator 19.2.1, SVG Export Plug-In . SVG Version: 6.00 Build 0)  -->
<svg version="1.1" id="Layer_1" xmlns="http://www.w3.org/2000/svg" xmlns:xlink="http://www.w3.org/1999/xlink" x="0px" y="0px" viewBox="0 0 618.5 157.6" style="enable-background:new 0 0 618.5 157.6;" xml:space="preserve">
<style type="text/css">
	.st0{fill:#FFFFFF;stroke:#FFFFFF;stroke-miterlimit:10;}
	.st1{fill:#FFFFFF;}
</style>
<g id="wordmark">
	<path id="type" class="st0" d="M603.5,118.7h15V63.5h-15V118.7z M603.5,53.9h15V41.7h-15V53.9z M574.5,91.4   c0,8.9-3.2,16.5-10.5,16.5c-6.7,0-11-6.8-11-17.5c0-9.7,3.5-16.4,10.8-16.4c7.6,0,10.7,7.5,10.7,15.1V91.4z M575.3,118.7h14.2V41   h-15.1v29.4c-2.2-4.6-7.4-8.5-15.1-8.5c-11.3,0-22,8.5-22,28.7c0,18.4,8.8,29.3,22.1,29.3c7.7,0,12.9-3.7,15.8-10.1L575.3,118.7   L575.3,118.7z M511.1,118.7h15V63.5h-15V118.7z M511.1,53.9h15V41.7h-15V53.9z M447.4,118.7h15V90.8c0-10.6,4.5-15.8,10.9-15.8   c6.2,0,9.1,4.4,9.1,12.1v31.7h15V84.6c0-14.4-5.6-22.7-17.7-22.7c-8.9,0-14.6,4.7-17.3,10.2V41h-15V118.7z M418,96.3   c0,8.2-5.2,13.4-11.4,13.4c-4.7,0-7.5-3.3-7.5-7.5c0-4.3,2.8-6.6,9.4-7.8l9.6-1.8v3.7H418z M435.1,118.7c-1.9-4.5-2.1-7.4-2.1-15.7   V82.3c0-13.9-6.3-20.5-21.7-20.5c-12.1,0-20.6,4.2-25.1,8.6l7.1,9.9c3.7-3.9,8.7-7,16.1-7c4.9,0,8.5,1.4,8.5,7.9v2.1l-12.2,1.9   c-12.5,1.9-21,6.4-21,17.7c0,10.2,6.6,17.6,17.9,17.6c8.5,0,13.9-4.2,16.2-9.6c0.2,2.6,0.8,5.8,1.6,7.8H435.1z M323.3,118.7h15   V90.8c0-10.6,4.5-15.8,10.9-15.8c6.2,0,9.1,4.4,9.1,12.1v31.7h15V84.6c0-14.4-5.6-22.7-17.7-22.7c-8.9,0-14.6,4.7-17.3,10.2V41h-15   V118.7z M265.6,112.2c6.1,5.4,14.4,8.2,24.3,8.2c11,0,22.6-5.9,22.6-18.3c0-19.6-29.7-15.4-29.7-24.8c0-3.4,3-4.7,6.4-4.7   c5.9,0,12.5,2.9,15.5,5.7l6.9-9.9c-5.6-4.3-12.6-6.7-21.9-6.7c-11.3,0-22.1,5.3-22.1,17.3c0,20.5,29.8,14.7,29.8,25   c0,3.8-4.2,5.4-8.1,5.4c-6.6,0-13.2-3.5-16.6-7.4L265.6,112.2z M192.4,91.6c0,12,4,28.8,30.8,28.8S254,103.7,254,91.6V41h-16.1   v49.7c0,11-5.4,15.7-14.7,15.7c-9.3,0-14.7-4.7-14.7-16.1V41h-16.1L192.4,91.6L192.4,91.6z"/>
</g>
<g id="logomark">
	<path class="st1" d="M169.4,122.8c0,7.5-6.1,13.7-13.7,13.7s-13.7-6.1-13.7-13.7c0-7.5,6.1-13.7,13.7-13.7S169.4,115.3,169.4,122.8   z M150,43.4c3.4,8.2,5.3,17.2,5.3,26.7c0,17.5-6.5,33.5-17.3,45.7c-2.8,23.6-22.9,41.8-47.2,41.8c-20.5,0-38-13-44.7-31.1   c-11.3-8-20.1-19.4-24.9-32.6C8.9,90.2,0,78.8,0,65.3C0,50,11.4,37.5,26.2,35.7C38.2,15,60.6,1,86.2,1c6.9,0,13.5,1,19.8,2.9   c1.8-2.4,4.7-3.9,7.9-3.9c4.4,0,8.1,2.8,9.5,6.8c3.5-2.2,7.6-3.5,12.1-3.5c12.6,0,22.7,10.2,22.7,22.7C158.2,33,155,39.3,150,43.4    M86.2,124.3c29.9,0,54.2-24.3,54.2-54.2s-24.2-54.2-54.2-54.2C56.3,15.9,32,40.2,32,70.1C32,100,56.3,124.3,86.2,124.3 M14.1,36.2   c4.3,0,7.8-3.5,7.8-7.8s-3.5-7.8-7.8-7.8s-7.8,3.5-7.8,7.8C6.4,32.7,9.8,36.2,14.1,36.2z M84.5,117L84.5,117   c-0.1,0-0.1,0.2-0.2,0.2c0.1,0,0.1,0.1,0.2,0.1c3.8,0,7.6-1.7,11.2-5c-5.5-0.3-11.6-1.4-17.8-3.3c-1.8,3.7-3.3,5.9-4.3,6.4   c3.6,1.1,7.2,1.8,10.5,2c-0.3,0-0.6,0-0.9-0.1c0.3,0,0.6,0,0.9,0.1c0.1,0,0.2,0,0.3,0c0.2,0,0.4,0,0.6,0c0.3,0,0.7,0,1,0   c-0.3,0-0.5-0.2-0.8-0.2S84.7,117,84.5,117z M98.5,112.4c5.3,0.1,9.8-0.6,13.2-2.2c-0.7,0.5-1.3,0.9-2,1.3c-0.9,0.5-1.9,1-2.7,1.4   l-0.2,0.1c-6.1,2.8-12.8,4.4-20,4.4c-0.2,0-0.4,0-0.5,0C90.5,117.4,94.7,115.7,98.5,112.4z M73.3,115.4c1.7,0.5,3.3,0.9,5,1.2   c-1.8-0.3-3.5-0.7-5.2-1.2H73.3z M72.3,115.1l0.7,0.2c-0.3-0.1-0.6-0.2-0.8-0.3L72.3,115.1z M65.9,112.6c1.8,0.9,3.7,1.6,5.6,2.3   h-0.1c-2.8-0.9-5.5-2.1-8-3.6C64.3,111.7,65.1,112.2,65.9,112.6z M61.7,110.3c0.6,0.4,1.2,0.7,1.8,1c-0.5-0.3-0.9-0.5-1.4-0.8   L61.7,110.3z M57.3,78.3c-2.3,6.8-3.3,12.9-3.1,18C49.2,93,45.4,89.4,43,86c-1.2-5.9-0.8-12.6,1.5-19.4   C47.3,70.4,51.7,74.4,57.3,78.3z M74.7,107.9c-1.5,3.8-2.5,6.1-3,6.7c-2.1-0.7-4.2-1.6-6.3-2.5c-1.6-0.8-3.1-1.6-4.5-2.4   c-2.4-2-3.8-5.4-4-10c2.3,1.4,4.8,2.7,7.4,4C67.8,105.4,71.2,106.8,74.7,107.9z M45.5,64c2.7-6.8,7-13,12.3-18.3   c2.4,3.3,6.2,6.8,11.1,10.1c-4.3,6.2-8,13-10.6,19.8C52.6,71.9,48.3,67.8,45.5,64z M77.4,26c-0.6,1.5-0.3,3.3,0.8,5.2   c-7.1,2.4-13.7,6.1-19.4,11c-1.9-3.2-2.4-6.2-1.4-8.7C63.3,29.5,70.1,26.9,77.4,26z M126,90c-4,1.8-9.4,2.7-15.6,2.6   c2.3-7,3.4-14.6,3.6-22.1c5.4,0.1,10.1-0.6,13.5-2.2C128.5,75.6,128.1,83,126,90z M97,111c-5.7-0.4-12-1.5-18.4-3.4   c1.9-4.1,4.1-9.6,6.6-16.4c7.3,2.2,14.6,3.5,21,3.9C103.7,101.9,100.5,107.2,97,111z M85.1,37.9C80,42.1,75,47.5,70.5,53.5   c-4.7-3.2-8.3-6.5-10.7-9.8c5.6-5,12.1-9,19-11.7C80.2,34,82.3,36,85.1,37.9z M113.6,108.8c-3.5,1.6-8.2,2.3-13.7,2.3   c3.8-3.7,7.1-9.1,9.6-15.9c6.2,0.1,11.6-0.7,15.6-2.6C122.5,99.4,118.5,104.9,113.6,108.8z M109.1,46.2c1.6,6.6,2.3,13.9,2.1,21.4   c-5.4-0.3-11.4-1.4-17.5-3.3c2-7.2,3.8-14,5.1-20C102.4,45.3,105.9,46,109.1,46.2z M41.8,53.6l-0.1,0.3c0.2-0.7,0.5-1.4,0.8-2.1   L41.8,53.6z M114,67.7c-0.1-7.5-1.2-14.9-3.2-21.4c3.1,0,5.7-0.4,7.7-1.3c4.2,6.2,7.1,13.3,8.6,20.6C123.7,67,119.2,67.7,114,67.7z    M128.6,64.7c-1.6-7.2-4.8-14.1-9.2-20.2c0.3-0.2,0.5-0.4,0.8-0.6c1.2-1,1.8-2.3,1.7-3.7c5.1,4.9,8.9,10.8,10.9,17.2   c0.1,2.4-0.8,4.6-2.9,6.3C129.5,64.1,129,64.4,128.6,64.7z M64.6,102.1c-2.8-1.3-5.3-2.7-7.7-4.2c0-4.9,1.1-10.9,3.5-17.7   c2.7,1.6,5.6,3.2,8.8,4.8c4,1.9,8.1,3.6,12.2,5c-2.4,6.8-4.5,12.4-6.1,16.5C71.7,105.2,68.1,103.8,64.6,102.1z M79.1,61.6   c3.5,1.7,7,3.1,10.6,4.3c-2.4,7.1-4.9,14.4-7.4,21.4c-4.1-1.4-8.2-3.1-12.2-5c-3.2-1.5-6.1-3.1-8.8-4.8c2.6-6.9,6.1-13.8,10.2-20.1   C73.8,58.9,76.4,60.3,79.1,61.6z M107.1,92.5c-6.5-0.4-13.7-1.7-21-3.9c2.4-7,4.8-14.4,6.8-21.6c6.3,1.9,12.6,3,18.2,3.4   C110.7,77.9,109.4,85.5,107.1,92.5z M90.9,41.2c2,0.9,4,1.8,6,2.4c-1.8,5.8-4,12.6-6.4,19.6c-3.4-1.2-6.9-2.5-10.2-4.1   c-2.6-1.3-5.1-2.6-7.3-4c4.2-6.2,8.8-11.8,13.5-16.3C87.9,39.7,89.4,40.4,90.9,41.2z M131.4,86.6c-3.1,8.2-8.5,15.4-15.3,20.7   c-0.3,0.2-0.6,0.4-0.9,0.6c5.1-4,9.2-9.5,11.8-16.3c0.6-0.4,1.1-0.7,1.6-1.1C129.9,89.3,130.9,88,131.4,86.6z M132.5,83.5   c-0.2,0.7-0.4,1.4-0.7,2L132.5,83.5z M131.4,86.6c0.1-0.4,0.3-0.7,0.4-1.1v0.1L131.4,86.6C131.5,86.6,131.4,86.6,131.4,86.6z    M60.2,29.9L58.7,31c0.8-0.6,1.5-1.1,2.3-1.6C60.8,29.5,60.5,29.7,60.2,29.9z M48.1,41.6c2.7-3.7,6-7.1,9.6-9.9   c-0.7,0.6-1.3,1.2-1.7,1.9C53,35.9,50.3,38.6,48.1,41.6z M58.7,31c-0.3,0.2-0.7,0.5-1,0.7l0,0c0.2-0.2,0.4-0.3,0.6-0.5L58.7,31z    M42.5,51.6c0.5-1.1,1.1-2.4,1.7-3.6c2.7-5.2,6.5-9.6,11.1-13.1c-1.1,2.6-0.5,5.8,1.4,9.1c-5.4,5.1-9.8,11.2-12.5,18   C42,58.2,41.3,54.6,42.5,51.6z M101.3,28.8c-4.6,1.2-9.5,3.9-14.3,7.6c-2.5-1.7-4.4-3.4-5.6-5.1C87.9,29.1,94.7,28.2,101.3,28.8z    M85.2,22.4c5.4,0.5,10.9,2.6,16.1,6.4c-6.9-2.8-14-4-20.8-3.7c0.2-0.4,0.5-0.7,0.9-1C82.3,23.3,83.6,22.8,85.2,22.4z M42.5,51.7   L42.5,51.7L42.5,51.7L42.5,51.7C42.6,51.6,42.6,51.6,42.5,51.7C42.5,51.6,42.5,51.6,42.5,51.7z M41.9,84.2   c-0.8-1.3-1.3-2.6-1.6-3.8c-0.8-3.5-1.2-7.1-1.2-10.8c0-5.2,0.8-10.2,2.4-15c-0.9,2.9-0.3,6.3,1.8,9.9   C40.9,71.5,40.6,78.2,41.9,84.2z M101.3,28.8c-6.8-0.9-13.8-0.3-20.5,1.6c-1-1.7-1.3-3.3-0.7-4.6C87,25.3,94.2,26.2,101.3,28.8z    M107.4,26.5c-0.4-0.2-1-0.5-1.5-0.7C106.4,26,106.9,26.2,107.4,26.5L107.4,26.5z M101.3,28.8c2.7-2.2,4.7-2.9,6-2.3   c0.5,0.3,1.1,0.5,1.6,0.8c0.1,0.1,0.2,0.1,0.3,0.2c-0.1,0-0.1-0.1-0.2-0.1c0.1,0.1,0.3,0.1,0.4,0.2l0,0c0.1,0.1,0.3,0.2,0.4,0.2   c-0.1,0-0.1-0.1-0.2-0.1c0.2,0.1,0.4,0.2,0.6,0.3c0,0,0.1,0,0.1,0.1c0.1,0,0.1,0.1,0.2,0.1c0.1,0,0.1,0.1,0.2,0.1   c1.9,1.1,3.5,2.3,4.8,3.4C111.8,29.4,106.9,28.4,101.3,28.8z M105.9,25.8L105.9,25.8L105.9,25.8z M101.3,28.8c-1.3-3.6-3-5.6-5.1-6   c0,0,0,0,0.1,0c3.3,0.7,6.4,1.7,9.4,3C104.8,25.4,103.4,26.3,101.3,28.8z M96.7,22.9c-0.1,0-0.3-0.1-0.4-0.1c-0.1,0-0.2,0-0.3-0.1   h0.2L96.7,22.9z M105.9,25.8c0,0-0.1,0-0.1-0.1l0,0C105.8,25.8,105.8,25.8,105.9,25.8z M84.4,22.1c-1.3,0-2.7,0-4,0.2   c2.1-0.3,4.2-0.4,6.4-0.4c0.5,0,1,0,1.4,0C86.8,21.8,85.6,21.9,84.4,22.1z M59.8,30.3c0.1-0.1,0.3-0.2,0.5-0.4l0.8-0.5   c4.8-3.1,10.2-5.3,15.9-6.5c2-0.4,4-0.6,6.1-0.6c-1.8,0.4-3.2,1-4.3,1.9c-0.4,0.3-0.7,0.7-1,1.1c-7.2,0.7-13.9,3.1-19.7,6.9   C58.5,31.5,59.1,30.9,59.8,30.3z M77.1,22.8H77c-0.1,0-0.2,0-0.3,0.1C76.8,22.9,77,22.9,77.1,22.8z M80.1,22.3   c-0.9,0.2-2.1,0.3-3,0.5C78.1,22.6,79.1,22.4,80.1,22.3z M86.4,22.2c2.4-0.3,5.2-0.2,8.3,0.3c2.5,0.5,4.8,2.6,6.7,6.3   C96.5,24.9,91.4,22.8,86.4,22.2z M94.6,22.5c-0.2,0-0.4-0.1-0.6-0.1c0.2,0,0.3,0,0.4,0.1H94.6z M91.8,22.1c-0.2,0-0.4,0-0.6-0.1   l0,0C91.4,22.1,91.6,22.1,91.8,22.1z M93.9,22.4c-0.7-0.1-1.4-0.2-2.1-0.3C92.5,22.2,93.2,22.3,93.9,22.4z M121.7,39.3   c-0.4-1.8-1.6-3.7-3.5-5.6c0.7,0.6,1.4,1.2,2.1,1.8c5.4,5.3,9.6,11.9,12,19.3l0,0c0.1,0.4,0.2,0.8,0.3,1.1   C130.5,49.7,126.8,43.9,121.7,39.3z M120.5,35.8c-0.1-0.1-0.2-0.2-0.3-0.3l-0.1-0.1L120.5,35.8z M88.4,37.2   c4.4-3.9,8.8-6.9,12.9-8.4c-0.8,3.1-2.1,7.5-3.7,12.7c-1.8-0.6-3.6-1.3-5.4-2.2C90.8,38.6,89.5,37.9,88.4,37.2z M110.8,28.3   L110.8,28.3c-0.1-0.1-0.1-0.1-0.2-0.1C110.7,28.3,110.8,28.3,110.8,28.3z M110.8,28.3c0.4,0.2,0.8,0.4,1.1,0.7   C111.5,28.7,111.1,28.5,110.8,28.3z M134.6,69.6c0,4.8-0.7,9.5-2,13.8c-0.5,1.6-1.5,3.1-3.1,4.4c-0.5,0.4-1,0.8-1.6,1.1   c2.1-7,2.5-14.4,1.2-21.6c0.5-0.3,0.9-0.6,1.4-1c2.1-1.8,3.1-4,3-6.5c0.4,1.6,0.7,3.2,0.9,4.8c0,0.5,0.1,1.1,0.2,1.8   C134.5,67.5,134.6,68.6,134.6,69.6z M134.4,65.1c0-0.2,0-0.3-0.1-0.5c0-0.2,0-0.4-0.1-0.6C134.3,64.4,134.3,64.8,134.4,65.1z    M59.4,108.7c-0.3-0.2-0.6-0.4-1-0.7c0.2,0.2,0.5,0.3,0.7,0.5c-0.2-0.1-0.4-0.3-0.7-0.5l-0.1-0.1c-0.1-0.1-0.2-0.1-0.2-0.2   c0.1,0.1,0.1,0.1,0.2,0.2c-0.2-0.1-0.4-0.3-0.5-0.4c-3.8-2.9-7.1-6.4-9.9-10.3c-0.2-0.3-0.4-0.6-0.6-0.9c0.2,0.3,0.4,0.6,0.6,0.8   c-3-4.2-5.3-8.9-6.8-14c0.3,1.1,0.8,2.1,1.5,3.3c0.7,2.5,1.8,5,3.1,7.2l0.1,0.2c0.4,0.7,0.9,1.5,1.4,2.3c-1.6-2.4-2.8-5.1-3.6-8   c2.4,3.3,6,6.7,10.8,9.9C54.9,102.8,56.6,106.5,59.4,108.7z M119.7,37.6c-5.1-4.1-11.3-7.1-18.4-8.8c6-0.1,11.1,1.3,15.2,3.8   C118.3,34.3,119.4,36.1,119.7,37.6z M99.3,42c1.1-5.4,1.8-10,2.1-13.2c3.1,3.9,5.5,9,7.2,14.9C105.6,43.6,102.5,43,99.3,42z    M109.9,43.8c-2.1-5.9-5-11.1-8.6-15c6.1,3.5,11.3,8.3,15.5,13.9C115,43.5,112.7,43.8,109.9,43.8z M101.3,28.8   c7.2,2,13.4,5.3,18.5,9.6c0.1,1.3-0.4,2.4-1.5,3.3c-0.2,0.2-0.4,0.3-0.7,0.5C113.2,36.8,107.7,32.1,101.3,28.8z"/>
</g>
</svg>
